<svg width="50" height="50" viewBox="0 0 50 50" fill="none" xmlns="http://www.w3.org/2000/svg">
<path d="M25 0C11.25 0 0 11.225 0 25.05C0 37.55 9.14999 47.9249 21.1 49.7999V32.3H14.75V25.05H21.1V19.525C21.1 13.25 24.825 9.79999 30.55 9.79999C33.275 9.79999 36.125 10.275 36.125 10.275V16.45H32.975C29.875 16.45 28.9 18.375 28.9 20.35V25.05H35.85L34.725 32.3H28.9V49.7999C34.7911 48.8695 40.1555 45.8637 44.0248 41.3251C47.8941 36.7865 50.0133 31.0141 49.9999 25.05C49.9999 11.225 38.75 0 25 0V0Z" fill="white"/>
</svg>
