<svg width="273" height="40" viewBox="0 0 273 40" fill="none" xmlns="http://www.w3.org/2000/svg">
<ellipse cx="267" cy="33.8462" rx="6" ry="6.15385" fill="#F2BC18"/>
<path d="M11.2 38C10.5333 38 10 37.8833 9.6 37.65C9.23333 37.3833 8.98333 36.95 8.85 36.35L1.25 5.5C1.21667 5.36666 1.2 5.18333 1.2 4.95C1.2 4.31667 1.61667 4 2.45 4H9.5C10.1 4 10.5167 4.1 10.75 4.3C11.0167 4.5 11.1833 4.81666 11.25 5.25L14.25 20.55L18.25 8C18.4167 7.46666 18.6333 7.1 18.9 6.9C19.1667 6.7 19.6 6.6 20.2 6.6H23.55C24.15 6.6 24.5833 6.7 24.85 6.9C25.15 7.1 25.3833 7.46666 25.55 8L29.55 20.55L32.5 5.25C32.5667 4.81666 32.7333 4.5 33 4.3C33.2667 4.1 33.7 4 34.3 4H41.35C42.2167 4 42.65 4.31667 42.65 4.95C42.65 5.18333 42.6333 5.36666 42.6 5.5L34.9 36.35C34.7667 36.95 34.5167 37.3833 34.15 37.65C33.7833 37.8833 33.2667 38 32.6 38H28.05C27.3833 38 26.8667 37.8833 26.5 37.65C26.1667 37.3833 25.9167 36.95 25.75 36.35L21.9 23.2L18.05 36.35C17.8833 36.95 17.6167 37.3833 17.25 37.65C16.8833 37.8833 16.3833 38 15.75 38H11.2ZM59.5477 38.75C56.7477 38.75 54.2477 38.2833 52.0477 37.35C49.881 36.4167 48.1643 35.0167 46.8977 33.15C45.631 31.2833 44.9977 29 44.9977 26.3C44.9977 22.0667 46.1977 18.8333 48.5977 16.6C50.9977 14.3667 54.4477 13.25 58.9477 13.25C63.3477 13.25 66.681 14.35 68.9477 16.55C71.2477 18.7167 72.3977 21.7333 72.3977 25.6C72.3977 27.2667 71.6643 28.1 70.1977 28.1H54.4977C54.4977 29.5333 55.031 30.6333 56.0977 31.4C57.1977 32.1667 58.8477 32.55 61.0477 32.55C62.4143 32.55 63.5477 32.4333 64.4477 32.2C65.381 31.9333 66.3143 31.55 67.2477 31.05C67.6477 30.8833 67.9143 30.8 68.0477 30.8C68.3477 30.8 68.5977 31 68.7977 31.4L70.4977 34.6C70.6643 34.9333 70.7477 35.1833 70.7477 35.35C70.7477 35.65 70.5477 35.9333 70.1477 36.2C68.781 37.1 67.231 37.75 65.4977 38.15C63.7643 38.55 61.781 38.75 59.5477 38.75ZM63.3977 23.15C63.3977 21.8833 63.031 20.9 62.2977 20.2C61.5643 19.5 60.4643 19.15 58.9977 19.15C57.531 19.15 56.4143 19.5167 55.6477 20.25C54.881 20.95 54.4977 21.9167 54.4977 23.15H63.3977Z" fill="#F2BC18"/>
<path d="M86.4352 38C85.4685 38 84.7852 37.8 84.3852 37.4C83.9852 37 83.7852 36.3667 83.7852 35.5V11.3H76.0852C75.1518 11.3 74.5185 11.1167 74.1852 10.75C73.8518 10.35 73.6852 9.71667 73.6852 8.85V6.5C73.6852 5.63333 73.8518 5 74.1852 4.6C74.5185 4.2 75.1518 4 76.0852 4H101.635C102.568 4 103.202 4.2 103.535 4.6C103.902 5 104.085 5.63333 104.085 6.5V8.85C104.085 9.71667 103.902 10.35 103.535 10.75C103.202 11.1167 102.568 11.3 101.635 11.3H93.9352V35.5C93.9352 36.3667 93.7352 37 93.3352 37.4C92.9352 37.8 92.2518 38 91.2852 38H86.4352ZM108.998 38C108.031 38 107.348 37.8 106.948 37.4C106.581 37 106.398 36.3667 106.398 35.5V6.55C106.398 5.68333 106.598 5.05 106.998 4.65C107.398 4.21667 108.065 4 108.998 4H121.298C125.931 4 129.348 4.96667 131.548 6.9C133.748 8.83333 134.848 11.7167 134.848 15.55C134.848 20.3167 133.015 23.6 129.348 25.4L134.298 36.15C134.431 36.4167 134.498 36.6833 134.498 36.95C134.498 37.25 134.381 37.5 134.148 37.7C133.948 37.9 133.665 38 133.298 38H126.298C125.798 38 125.398 37.9333 125.098 37.8C124.831 37.6667 124.631 37.4167 124.498 37.05L120.348 26.9H116.498V35.5C116.498 36.3667 116.298 37 115.898 37.4C115.498 37.8 114.815 38 113.848 38H108.998ZM120.198 19.75C123.231 19.75 124.748 18.35 124.748 15.55C124.748 12.7167 123.315 11.3 120.448 11.3H116.498V19.75H120.198ZM135.94 38C135.24 38 134.89 37.7 134.89 37.1C134.89 36.8333 134.974 36.5 135.14 36.1L147.84 5.7C148.107 5.06667 148.39 4.63333 148.69 4.4C149.024 4.13333 149.507 4 150.14 4H154.69C155.324 4 155.79 4.13333 156.09 4.4C156.424 4.63333 156.724 5.06667 156.99 5.7L169.69 36.1C169.857 36.5 169.94 36.8167 169.94 37.05C169.94 37.35 169.84 37.5833 169.64 37.75C169.474 37.9167 169.224 38 168.89 38H161.14C160.674 38 160.307 37.9167 160.04 37.75C159.774 37.55 159.557 37.2333 159.39 36.8L157.64 32H147.14L145.44 36.8C145.274 37.2333 145.057 37.55 144.79 37.75C144.524 37.9167 144.14 38 143.64 38H135.94ZM155.44 25.2L152.39 16.7L149.34 25.2H155.44ZM179.28 38C178.647 38 178.163 37.8833 177.83 37.65C177.53 37.4167 177.247 36.9833 176.98 36.35L164.68 5.9C164.547 5.6 164.48 5.28333 164.48 4.95C164.48 4.31667 164.813 4 165.48 4H173.18C174.113 4 174.713 4.41667 174.98 5.25L181.53 24.15L188.08 5.25C188.347 4.41667 188.963 4 189.93 4H197.63C198.297 4 198.63 4.31667 198.63 4.95C198.63 5.28333 198.563 5.6 198.43 5.9L186.18 36.35C185.913 36.9833 185.613 37.4167 185.28 37.65C184.947 37.8833 184.463 38 183.83 38H179.28ZM204.506 38C203.539 38 202.856 37.8 202.456 37.4C202.089 37 201.906 36.3667 201.906 35.5V6.55C201.906 5.68333 202.106 5.05 202.506 4.65C202.906 4.21667 203.573 4 204.506 4H225.256C226.189 4 226.823 4.2 227.156 4.6C227.489 4.96667 227.656 5.6 227.656 6.5V8.8C227.656 9.7 227.489 10.35 227.156 10.75C226.823 11.1167 226.189 11.3 225.256 11.3H212.006V17.4H220.756C221.689 17.4 222.323 17.6 222.656 18C223.023 18.3667 223.206 19 223.206 19.9V22.1C223.206 23 223.023 23.65 222.656 24.05C222.323 24.4167 221.689 24.6 220.756 24.6H212.006V30.75H225.206C226.139 30.75 226.773 30.95 227.106 31.35C227.439 31.7167 227.606 32.35 227.606 33.25V35.55C227.606 36.4167 227.439 37.05 227.106 37.45C226.773 37.8167 226.139 38 225.206 38H204.506ZM233.07 38C232.104 38 231.42 37.8 231.02 37.4C230.654 37 230.47 36.3667 230.47 35.5V6.55C230.47 5.68333 230.67 5.05 231.07 4.65C231.47 4.21667 232.137 4 233.07 4H237.92C238.887 4 239.57 4.21667 239.97 4.65C240.37 5.05 240.57 5.68333 240.57 6.55V30.75H253.47C254.404 30.75 255.037 30.95 255.37 31.35C255.704 31.7167 255.87 32.35 255.87 33.25V35.55C255.87 36.4167 255.704 37.05 255.37 37.45C255.037 37.8167 254.404 38 253.47 38H233.07Z" fill="white"/>
</svg>
