<svg width="291" height="40" viewBox="0 0 291 40" fill="none" xmlns="http://www.w3.org/2000/svg">
<ellipse cx="284.182" cy="33.8461" rx="6.36364" ry="6.15385" fill="#F2BC18"/>
<path d="M15.95 38C14.9833 38 14.3 37.8 13.9 37.4C13.5 37 13.3 36.3667 13.3 35.5V26.25L1.45 5.9C1.25 5.6 1.15 5.3 1.15 5C1.15 4.7 1.23333 4.46667 1.4 4.3C1.6 4.1 1.88333 4 2.25 4H9.95C10.4167 4 10.7667 4.1 11 4.3C11.2333 4.46667 11.4667 4.76667 11.7 5.2L18.4 17L25.05 5.2C25.2833 4.76667 25.5167 4.46667 25.75 4.3C25.9833 4.1 26.3333 4 26.8 4H34.55C35.25 4 35.6 4.33333 35.6 5C35.6 5.26667 35.5167 5.56667 35.35 5.9L23.45 26.3V35.5C23.45 36.3667 23.25 37 22.85 37.4C22.45 37.8 21.7667 38 20.8 38H15.95ZM44.6527 38.75C40.0861 38.75 36.5361 37.6167 34.0027 35.35C31.4694 33.05 30.2027 29.9333 30.2027 26C30.2027 22.0667 31.4694 18.9667 34.0027 16.7C36.5361 14.4 40.0861 13.25 44.6527 13.25C49.2194 13.25 52.7694 14.4 55.3027 16.7C57.8694 18.9667 59.1527 22.0667 59.1527 26C59.1527 29.9333 57.8694 33.05 55.3027 35.35C52.7694 37.6167 49.2194 38.75 44.6527 38.75ZM44.6527 31.6C47.5861 31.6 49.0527 29.7333 49.0527 26C49.0527 22.3333 47.5861 20.5 44.6527 20.5C41.7194 20.5 40.2527 22.3333 40.2527 26C40.2527 27.8667 40.6361 29.2667 41.4027 30.2C42.1694 31.1333 43.2527 31.6 44.6527 31.6ZM71.4027 38.75C68.5027 38.75 66.2361 38 64.6027 36.5C63.0027 34.9667 62.2027 32.6333 62.2027 29.5V16.55C62.2027 15.6833 62.4027 15.05 62.8027 14.65C63.2027 14.2167 63.8694 14 64.8027 14H69.6527C70.6194 14 71.3027 14.2167 71.7027 14.65C72.1027 15.05 72.3027 15.6833 72.3027 16.55V29.1C72.3027 31 73.2194 31.95 75.0527 31.95C76.0527 31.95 76.8194 31.6833 77.3527 31.15C77.8861 30.6167 78.1527 29.8667 78.1527 28.9V16.55C78.1527 15.6833 78.3527 15.05 78.7527 14.65C79.1527 14.2167 79.8361 14 80.8027 14H85.6527C86.6194 14 87.3027 14.2167 87.7027 14.65C88.1027 15.05 88.3027 15.6833 88.3027 16.55V36.45C88.3027 37.0833 88.1861 37.5 87.9527 37.7C87.7527 37.9 87.3027 38 86.6027 38H81.4527C81.0527 38 80.7361 37.95 80.5027 37.85C80.3027 37.75 80.1861 37.55 80.1527 37.25L79.9027 35.7C78.9361 36.6333 77.7361 37.3833 76.3027 37.95C74.8694 38.4833 73.2361 38.75 71.4027 38.75Z" fill="#F2BC18"/>
<path d="M103.33 38C102.363 38 101.68 37.8 101.28 37.4C100.88 37 100.68 36.3667 100.68 35.5V11.3H92.9797C92.0464 11.3 91.413 11.1167 91.0797 10.75C90.7464 10.35 90.5797 9.71667 90.5797 8.85V6.5C90.5797 5.63333 90.7464 5 91.0797 4.6C91.413 4.2 92.0464 4 92.9797 4H118.53C119.463 4 120.096 4.2 120.43 4.6C120.796 5 120.98 5.63333 120.98 6.5V8.85C120.98 9.71667 120.796 10.35 120.43 10.75C120.096 11.1167 119.463 11.3 118.53 11.3H110.83V35.5C110.83 36.3667 110.63 37 110.23 37.4C109.83 37.8 109.146 38 108.18 38H103.33ZM125.893 38C124.926 38 124.243 37.8 123.843 37.4C123.476 37 123.293 36.3667 123.293 35.5V6.55C123.293 5.68333 123.493 5.05 123.893 4.65C124.293 4.21667 124.959 4 125.893 4H138.193C142.826 4 146.243 4.96667 148.443 6.9C150.643 8.83333 151.743 11.7167 151.743 15.55C151.743 20.3167 149.909 23.6 146.243 25.4L151.193 36.15C151.326 36.4167 151.393 36.6833 151.393 36.95C151.393 37.25 151.276 37.5 151.043 37.7C150.843 37.9 150.559 38 150.193 38H143.193C142.693 38 142.293 37.9333 141.993 37.8C141.726 37.6667 141.526 37.4167 141.393 37.05L137.243 26.9H133.393V35.5C133.393 36.3667 133.193 37 132.793 37.4C132.393 37.8 131.709 38 130.743 38H125.893ZM137.093 19.75C140.126 19.75 141.643 18.35 141.643 15.55C141.643 12.7167 140.209 11.3 137.343 11.3H133.393V19.75H137.093ZM152.835 38C152.135 38 151.785 37.7 151.785 37.1C151.785 36.8333 151.868 36.5 152.035 36.1L164.735 5.7C165.001 5.06667 165.285 4.63333 165.585 4.4C165.918 4.13333 166.401 4 167.035 4H171.585C172.218 4 172.685 4.13333 172.985 4.4C173.318 4.63333 173.618 5.06667 173.885 5.7L186.585 36.1C186.751 36.5 186.835 36.8167 186.835 37.05C186.835 37.35 186.735 37.5833 186.535 37.75C186.368 37.9167 186.118 38 185.785 38H178.035C177.568 38 177.201 37.9167 176.935 37.75C176.668 37.55 176.451 37.2333 176.285 36.8L174.535 32H164.035L162.335 36.8C162.168 37.2333 161.951 37.55 161.685 37.75C161.418 37.9167 161.035 38 160.535 38H152.835ZM172.335 25.2L169.285 16.7L166.235 25.2H172.335ZM196.175 38C195.541 38 195.058 37.8833 194.725 37.65C194.425 37.4167 194.141 36.9833 193.875 36.35L181.575 5.9C181.441 5.6 181.375 5.28333 181.375 4.95C181.375 4.31667 181.708 4 182.375 4H190.075C191.008 4 191.608 4.41667 191.875 5.25L198.425 24.15L204.975 5.25C205.241 4.41667 205.858 4 206.825 4H214.525C215.191 4 215.525 4.31667 215.525 4.95C215.525 5.28333 215.458 5.6 215.325 5.9L203.075 36.35C202.808 36.9833 202.508 37.4167 202.175 37.65C201.841 37.8833 201.358 38 200.725 38H196.175ZM221.4 38C220.434 38 219.75 37.8 219.35 37.4C218.984 37 218.8 36.3667 218.8 35.5V6.55C218.8 5.68333 219 5.05 219.4 4.65C219.8 4.21667 220.467 4 221.4 4H242.15C243.084 4 243.717 4.2 244.05 4.6C244.384 4.96667 244.55 5.6 244.55 6.5V8.8C244.55 9.7 244.384 10.35 244.05 10.75C243.717 11.1167 243.084 11.3 242.15 11.3H228.9V17.4H237.65C238.584 17.4 239.217 17.6 239.55 18C239.917 18.3667 240.1 19 240.1 19.9V22.1C240.1 23 239.917 23.65 239.55 24.05C239.217 24.4167 238.584 24.6 237.65 24.6H228.9V30.75H242.1C243.034 30.75 243.667 30.95 244 31.35C244.334 31.7167 244.5 32.35 244.5 33.25V35.55C244.5 36.4167 244.334 37.05 244 37.45C243.667 37.8167 243.034 38 242.1 38H221.4ZM249.965 38C248.998 38 248.315 37.8 247.915 37.4C247.548 37 247.365 36.3667 247.365 35.5V6.55C247.365 5.68333 247.565 5.05 247.965 4.65C248.365 4.21667 249.032 4 249.965 4H254.815C255.782 4 256.465 4.21667 256.865 4.65C257.265 5.05 257.465 5.68333 257.465 6.55V30.75H270.365C271.298 30.75 271.932 30.95 272.265 31.35C272.598 31.7167 272.765 32.35 272.765 33.25V35.55C272.765 36.4167 272.598 37.05 272.265 37.45C271.932 37.8167 271.298 38 270.365 38H249.965Z" fill="white"/>
</svg>
