<svg width="50" height="41" viewBox="0 0 50 41" fill="none" xmlns="http://www.w3.org/2000/svg">
<path d="M50 4.78012C48.1597 5.61664 46.1759 6.16635 44.1205 6.42925C46.2237 5.16252 47.849 3.15488 48.6138 0.740918C46.63 1.93595 44.4312 2.77247 42.1128 3.25048C40.2247 1.19503 37.5717 0 34.5602 0C28.9436 0 24.3547 4.58891 24.3547 10.2533C24.3547 11.066 24.4503 11.8547 24.6176 12.5956C16.109 12.1654 8.53251 8.07839 3.48948 1.88815C2.60516 3.39388 2.10325 5.16252 2.10325 7.02677C2.10325 10.588 3.89579 13.7428 6.66826 15.5354C4.97132 15.5354 3.39388 15.0574 2.00765 14.3403V14.412C2.00765 19.3834 5.54493 23.5421 10.2294 24.4742C8.72545 24.8858 7.1465 24.943 5.61664 24.6415C6.26579 26.679 7.53713 28.4618 9.25195 29.7393C10.9668 31.0169 13.0388 31.7249 15.1769 31.7639C11.5527 34.633 7.06022 36.1838 2.43786 36.1616C1.62524 36.1616 0.81262 36.1138 0 36.0182C4.54111 38.934 9.94264 40.631 15.7266 40.631C34.5602 40.631 44.9092 25 44.9092 11.4484C44.9092 10.9943 44.9092 10.5641 44.8853 10.1099C46.8929 8.67591 48.6138 6.85947 50 4.78012V4.78012Z" fill="white"/>
</svg>
